<?xml version="1.0" standalone="no"?>
<!DOCTYPE svg PUBLIC "-//W3C//DTD SVG 20010904//EN" "http://www.w3.org/TR/2001/REC-SVG-20010904/DTD/svg10.dtd">
<!-- Created using Karbon, part of Calligra: http://www.calligra.org/karbon -->
<svg xmlns="http://www.w3.org/2000/svg" xmlns:xlink="http://www.w3.org/1999/xlink" width="48pt" height="48pt">
<defs/>
<g id="layer0">
  <path id="path701" transform="translate(4.42479, 4.42473)" fill="#2980b9" fill-rule="evenodd" stroke="#f6f7fc" stroke-width="0.00000000000" stroke-linecap="round" stroke-linejoin="round" d="M25.5752 0C11.4518 0 0 11.4448 0 25.5596C0 39.6744 11.4518 51.1505 25.5752 51.1505C39.6986 51.1505 51.1504 39.6744 51.1504 25.5596C51.1504 11.4448 39.6986 0 25.5752 0Z"/>
  <g id="group0" transform="translate(11.0823, 9.30846)" fill="none">
   <path id="path1208" transform="matrix(0.970138 0 0 0.970138 31.1598 8.66069)" fill="none" stroke="#f6f7fc" stroke-width="1.25000000000" stroke-linecap="round" stroke-linejoin="round" d="M1.80742 0.0410778L0.0410771 1.80742M0 0L1.80742 1.80742"/>
   <path id="path1209" transform="matrix(0.970138 0 0 1.26978 2.42534 5.85641)" fill="none" stroke="#f6f7fc" stroke-width="3.12500000000" stroke-linecap="round" stroke-linejoin="round" d="M1.54527 0C0.68919 0 0 0.689193 0 1.54527L0 21.8212C0 22.6773 0.68919 23.3665 1.54527 23.3665L32.5177 23.3665C33.3738 23.3665 34.063 22.6773 34.063 21.8212L34.063 1.54527C34.063 0.689193 33.3738 0 32.5177 0Z"/>
   <path id="path1210" transform="matrix(0.970138 0 0 0.970138 2.36425 11.3562)" fill="none" stroke="#f6f7fc" stroke-width="3.12500000000" stroke-linecap="round" stroke-linejoin="round" d="M0 0C0 0.839382 0.675747 1.51513 1.51512 1.51513L32.5507 1.51513C33.39 1.51513 34.0657 0.839382 34.0657 0"/>
  </g>
  <g id="group1" transform="translate(12.761, 21.6246)" fill="none">
   <path id="path1729" transform="matrix(0 -1 1 0 6.02728 16.3184)" fill="#f6f7fc" fill-rule="evenodd" stroke="#f6f7fc" stroke-width="3.12500000000" stroke-linecap="round" stroke-linejoin="round" d="M0 0L11.2382 0"/>
   <path id="path17291" transform="matrix(0 1 -1 0 7.09648 6.24486)" fill="#f6f7fc" fill-rule="evenodd" stroke="#f6f7fc" stroke-width="3.12500000000" stroke-linecap="round" stroke-linejoin="round" d="M0 2.13849L0 0"/>
  </g>
 </g>
</svg>
