<?xml version="1.0" standalone="no"?>
<!DOCTYPE svg PUBLIC "-//W3C//DTD SVG 20010904//EN" "http://www.w3.org/TR/2001/REC-SVG-20010904/DTD/svg10.dtd">
<!-- Created using Karbon, part of Calligra: http://www.calligra.org/karbon -->
<svg xmlns="http://www.w3.org/2000/svg" xmlns:xlink="http://www.w3.org/1999/xlink" width="48pt" height="48pt">
<defs/>
<g id="layer0">
  <path id="path701" transform="translate(4.42481, 4.42476)" fill="#2980b9" fill-rule="evenodd" d="M25.5752 0C11.4517 0 0 11.4448 0 25.5596C0 39.6743 11.4517 51.1505 25.5752 51.1505C39.6986 51.1505 51.1504 39.6743 51.1504 25.5596C51.1504 11.4448 39.6986 0 25.5752 0Z"/>
  <path id="path837" transform="translate(12.882, 12.7048)" fill="#f6f7fc" d="M13.1154 13.2926L13.1154 4.28319C13.1154 3.02285 13.46 1.99882 14.1493 1.21111C14.8385 0.403703 15.8232 0 17.1032 0C18.3832 0 19.3679 0.403703 20.0571 1.21111C20.7661 1.99882 21.1205 3.02285 21.1205 4.28319L21.1205 13.2926L30.0118 13.2926C31.3116 13.2926 32.3356 13.6471 33.0839 14.3561C33.8519 15.0453 34.236 16.0201 34.236 17.2804C34.236 18.5605 33.8519 19.555 33.0839 20.2639C32.3356 20.9728 31.3116 21.3273 30.0118 21.3273L21.1205 21.3273L21.1205 30.3072C21.1205 31.5873 20.7661 32.6211 20.0571 33.4089C19.3482 34.1966 18.3636 34.5904 17.1032 34.5904C15.8429 34.5904 14.8582 34.1966 14.1493 33.4089C13.46 32.6211 13.1154 31.5873 13.1154 30.3072L13.1154 21.3273L4.22411 21.3273C2.96377 21.3273 1.93974 20.9433 1.15203 20.1753C0.38401 19.3876 0 18.4226 0 17.2804C0 16.0201 0.374164 15.0453 1.12249 14.3561C1.89051 13.6471 2.92438 13.2926 4.22411 13.2926Z"/>
 </g>
</svg>
