<?xml version="1.0" standalone="no"?>
<!DOCTYPE svg PUBLIC "-//W3C//DTD SVG 20010904//EN" "http://www.w3.org/TR/2001/REC-SVG-20010904/DTD/svg10.dtd">
<!-- Created using Karbon, part of Calligra: http://www.calligra.org/karbon -->
<svg xmlns="http://www.w3.org/2000/svg" xmlns:xlink="http://www.w3.org/1999/xlink" width="48pt" height="48pt">
<defs/>
<g id="layer0">
  <path id="path701" transform="translate(4.42481, 4.42476)" fill="#2980b9" fill-rule="evenodd" d="M25.5752 0C11.4517 0 0 11.4448 0 25.5596C0 39.6743 11.4517 51.1505 25.5752 51.1505C39.6986 51.1505 51.1504 39.6743 51.1504 25.5596C51.1504 11.4448 39.6986 0 25.5752 0Z"/>
  <path id="path866" transform="matrix(0.943737 0 0 0.943737 18.9914 10.8527)" fill="#2980b9" fill-rule="evenodd" stroke="#f6f7fc" stroke-width="3.12500000000" stroke-linecap="round" stroke-linejoin="round" d="M11.6572 0.00220145C5.98525 0.0439913 1.30013 4.45084 0.272102 9.25483C-0.465327 13.4076 0.413449 17.6404 1.50694 21.6786C2.27966 24.1321 3.07814 26.6327 4.48411 28.8612C6.06968 31.019 9.08145 32.1708 11.9187 31.7428C14.0482 31.7408 16.6162 31.8329 18.0961 30.1943C20.5559 26.2394 21.5786 21.7454 22.6996 17.3747C23.663 13.2764 23.8446 8.63594 21.1053 5.02338C19.0613 2.17425 15.5623 -0.0804448 11.6572 0.00220145Z"/>
  <g id="group0" transform="translate(18.5848, 33.329)" fill="none">
   <path id="path859" transform="matrix(0.943737 0 0 0.943737 7.38403 11.7806)" fill="#2980b9" fill-rule="evenodd" stroke="#f6f7fc" stroke-width="3.12500000000" stroke-linecap="round" stroke-linejoin="round" d="M8.55675 0C8.55675 2.36167 6.64004 4.27838 4.27838 4.27838C1.91671 4.27838 0 2.36167 0 0"/>
   <path id="rect858" transform="matrix(0.943737 0 0 0.943737 2.35934 2.35934)" fill="#2980b9" fill-rule="evenodd" stroke="#f6f7fc" stroke-width="3.12500000000" stroke-linecap="round" stroke-linejoin="round" d="M3.73602 0C1.66627 0 0 1.66627 0 3.73602L0 6.53208C0 8.60184 1.66627 10.2681 3.73602 10.2681L15.4691 10.2681C17.5389 10.2681 19.2052 8.60184 19.2052 6.53208L19.2052 3.73602C19.2052 1.66627 17.5389 0 15.4691 0Z"/>
  </g>
  <path id="path860" transform="matrix(0.943737 0 0 0.943737 21.1236 37.2137)" fill="#2980b9" fill-rule="evenodd" stroke="#f6f7fc" stroke-width="1.25000000000" stroke-linecap="round" stroke-linejoin="round" d="M0.855677 0L18.7298 2.18672M0 2.6621L18.5396 5.13405M0.570446 5.60943L17.1135 7.89123"/>
  <path id="path862" transform="matrix(0.943737 0 0 0.943737 25.3031 25.4596)" fill="#2980b9" fill-rule="evenodd" stroke="#f6f7fc" stroke-width="2.02500000000" stroke-linecap="round" stroke-linejoin="round" d="M1.80643 10.5533L0 0M8.36661 10.6484L9.69766 0.760602"/>
  <path id="path863" transform="matrix(0.943737 0 0 0.943737 23.4961 21.2166)" fill="#2980b9" stroke="#f6f7fc" stroke-width="2.02500000000" stroke-linecap="round" stroke-linejoin="round" d="M1.24776 6.33427C0.857143 6.11031 0.581073 5.75541 0.364055 5.36756C-0.095925 4.45736 -0.138597 3.63155 0.342767 2.71265C1.14441 1.40855 2.35738 0.330691 3.88493 0.0158343C5.32172 -0.115592 6.26936 0.572741 6.28113 2.02038C6.23816 3.00959 6.00806 4.03878 5.20221 4.68454C4.15915 5.33761 2.72465 5.02847 2.51546 3.7145C2.45447 2.6287 3.25019 2.05572 4.21995 1.79871C5.28392 1.58569 6.48144 1.66562 7.25187 2.51537C7.66779 3.06764 7.78175 3.73857 7.64377 4.41095C7.30442 5.56285 5.61772 5.5767 5.30611 4.39354C5.13919 3.2867 5.91636 2.61378 6.84747 2.19674C7.97028 1.76427 9.5368 1.42807 10.4458 2.45088C10.8727 3.1008 10.8724 3.97586 10.5441 4.6709C9.79439 5.87915 8.29612 5.07062 8.26788 3.87523C8.31848 2.93746 8.90405 2.35139 9.7775 2.0773C10.7831 1.8553 11.7762 2.08614 12.4183 2.92155C12.7966 3.47881 12.952 4.08877 12.9444 4.75811C12.9366 4.95108 12.9197 5.14209 12.8966 5.33379L11.1875 5.25491C11.2099 5.08601 11.2273 4.91768 11.2363 4.74751C11.2483 4.24481 11.1535 3.77516 10.8653 3.35598C10.8089 3.28253 10.6004 3.02109 10.5229 3.01922C10.1351 3.04303 9.98281 3.5509 9.9629 3.86002C9.96762 4.04024 10.0134 4.16918 10.0684 4.33413C10.1153 4.47479 9.79883 4.19166 9.65098 4.18018C9.39747 4.1605 8.73261 4.54012 8.90891 4.3569C9.16075 3.96732 9.16168 3.31997 8.92525 2.92342C8.72894 2.64839 8.13853 2.9078 7.84155 3.01721C7.31937 3.24167 6.88672 3.5997 6.99199 4.22553C7.03694 4.37868 5.82392 4.60192 5.94661 4.27117C6.05663 3.84757 6.00095 3.36156 5.74107 3.00343C5.51212 2.73114 5.22335 2.69426 4.88298 2.75125C4.42971 2.85163 4.18329 3.14193 4.2018 3.61853C4.21131 3.68137 4.36657 4.00352 4.35738 4.03107C4.30602 4.18508 3.71731 4.09051 3.87036 4.03636C4.49241 3.65703 4.60936 2.68533 4.62709 2.03232C4.61957 1.81028 4.48759 1.02925 4.36067 0.999163C3.32937 1.06032 2.37066 2.18936 1.88944 2.99916C1.54211 3.70806 1.6078 4.34441 1.97547 5.02907C2.06998 5.18639 2.41733 5.5248 2.38465 5.50638Z"/>
 </g>
</svg>
