<?xml version="1.0" standalone="no"?>
<!DOCTYPE svg PUBLIC "-//W3C//DTD SVG 20010904//EN" "http://www.w3.org/TR/2001/REC-SVG-20010904/DTD/svg10.dtd">
<!-- Created using Karbon, part of Calligra: http://www.calligra.org/karbon -->
<svg xmlns="http://www.w3.org/2000/svg" xmlns:xlink="http://www.w3.org/1999/xlink" width="204.8pt" height="204.8pt">
<defs>
  <clipPath id="clippath0" clipPathUnits="userSpaceOnUse">
   <path d="M10.8235 7.35472C10.8235 7.35472 18.3235 20.3547 22.5735 35.1047C26.8235 49.8547 28.8235 60.6047 28.8235 60.6047C28.8235 60.6047 23.3235 73.3547 20.5735 85.3547C17.8235 97.3547 14.8235 108.355 14.8235 108.355C14.8235 108.355 20.5735 124.355 24.0735 138.355C27.5735 152.355 27.8235 162.605 27.8235 162.605C27.8235 162.605 23.8235 172.855 20.3235 186.855C16.8235 200.855 15.3235 217.605 15.3235 217.605C15.3235 217.605 24.5735 215.605 43.8235 218.855C63.0735 222.105 76.0735 224.855 76.0735 224.855C76.0735 224.855 88.8235 222.105 100.074 218.605C111.324 215.105 116.324 212.105 116.324 212.105C116.324 212.105 121.824 212.605 138.824 218.355C155.824 224.105 168.074 226.855 168.074 226.855C168.074 226.855 181.074 224.105 194.074 221.105C207.074 218.105 220.574 213.105 220.574 213.105C220.574 213.105 219.824 208.105 224.824 188.605C229.824 169.105 233.574 160.605 233.574 160.605C233.574 160.605 233.074 156.105 229.824 140.855C226.574 125.605 219.824 111.105 219.824 111.105C219.824 111.105 221.574 100.605 226.574 87.3547C231.574 74.1047 236.824 60.6047 236.824 60.6047C236.824 60.6047 232.074 45.3547 229.324 30.8547C226.574 16.3547 221.074 5.10472 221.074 5.10472C221.074 5.10472 196.824 14.1047 189.324 15.6047C181.824 17.1047 168.324 20.8547 168.324 20.8547C168.324 20.8547 158.574 16.6047 146.324 12.3547C134.074 8.10472 116.574 6.85472 116.574 6.85472C116.574 6.85472 113.324 10.3547 94.5735 14.8547C75.8235 19.3547 67.0735 20.6047 67.0735 20.6047C67.0735 20.6047 48.5735 11.6047 35.5735 9.10472C22.5735 6.60472 11.5735 7.10472 10.8235 7.35472Z"/>
  </clipPath>
  <clipPath id="clippath1" clipPathUnits="userSpaceOnUse">
   <path d="M4.25794 3.62586C4.25794 3.62586 11.7579 16.6259 16.0079 31.3759C20.2579 46.1259 22.2579 56.8759 22.2579 56.8759C22.2579 56.8759 16.7579 69.6259 14.0079 81.6259C11.2579 93.6259 8.25794 104.626 8.25794 104.626C8.25794 104.626 14.0079 120.626 17.5079 134.626C21.0079 148.626 21.2579 158.876 21.2579 158.876C21.2579 158.876 17.2579 169.126 13.7579 183.126C10.2579 197.126 8.75794 213.876 8.75794 213.876C8.75794 213.876 18.0079 211.876 37.2579 215.126C56.5079 218.376 69.5079 221.126 69.5079 221.126C69.5079 221.126 82.2579 218.376 93.5079 214.876C104.758 211.376 109.758 208.376 109.758 208.376C109.758 208.376 115.258 208.876 132.258 214.626C149.258 220.376 161.508 223.126 161.508 223.126C161.508 223.126 174.508 220.376 187.508 217.376C200.508 214.376 214.008 209.376 214.008 209.376C214.008 209.376 213.258 204.376 218.258 184.876C223.258 165.376 227.008 156.876 227.008 156.876C227.008 156.876 226.508 152.376 223.258 137.126C220.008 121.876 213.258 107.376 213.258 107.376C213.258 107.376 215.008 96.8759 220.008 83.6259C225.008 70.3759 230.258 56.8759 230.258 56.8759C230.258 56.8759 225.508 41.6259 222.758 27.1259C220.008 12.6259 214.508 1.37586 214.508 1.37586C214.508 1.37586 190.258 10.3759 182.758 11.8759C175.258 13.3759 161.758 17.1259 161.758 17.1259C161.758 17.1259 152.008 12.8759 139.758 8.62586C127.508 4.37586 110.008 3.12586 110.008 3.12586C110.008 3.12586 106.758 6.62586 88.0079 11.1259C69.2579 15.6259 60.5079 16.8759 60.5079 16.8759C60.5079 16.8759 42.0079 7.87586 29.0079 5.37586C16.0079 2.87586 5.00794 3.37586 4.25794 3.62586Z"/>
  </clipPath>
  <clipPath id="clippath2" clipPathUnits="userSpaceOnUse">
   <path d="M-36.7924 -4.00428C-36.7924 -4.00428 -29.2924 8.99572 -25.0424 23.7457C-20.7924 38.4957 -18.7924 49.2457 -18.7924 49.2457C-18.7924 49.2457 -24.2924 61.9957 -27.0424 73.9957C-29.7924 85.9957 -32.7924 96.9957 -32.7924 96.9957C-32.7924 96.9957 -27.0424 112.996 -23.5424 126.996C-20.0424 140.996 -19.7924 151.246 -19.7924 151.246C-19.7924 151.246 -23.7924 161.496 -27.2924 175.496C-30.7924 189.496 -32.2924 206.246 -32.2924 206.246C-32.2924 206.246 -23.0424 204.246 -3.79241 207.496C15.4576 210.746 28.4576 213.496 28.4576 213.496C28.4576 213.496 41.2076 210.746 52.4576 207.246C63.7076 203.746 68.7076 200.746 68.7076 200.746C68.7076 200.746 74.2076 201.246 91.2076 206.996C108.208 212.746 120.458 215.496 120.458 215.496C120.458 215.496 133.458 212.746 146.458 209.746C159.458 206.746 172.958 201.746 172.958 201.746C172.958 201.746 172.208 196.746 177.208 177.246C182.208 157.746 185.958 149.246 185.958 149.246C185.958 149.246 185.458 144.746 182.208 129.496C178.958 114.246 172.208 99.7457 172.208 99.7457C172.208 99.7457 173.958 89.2457 178.958 75.9957C183.958 62.7457 189.208 49.2457 189.208 49.2457C189.208 49.2457 184.458 33.9957 181.708 19.4957C178.958 4.99572 173.458 -6.25428 173.458 -6.25428C173.458 -6.25428 149.208 2.74572 141.708 4.24572C134.208 5.74572 120.708 9.49572 120.708 9.49572C120.708 9.49572 110.958 5.24572 98.7076 0.995718C86.4576 -3.25428 68.9576 -4.50428 68.9576 -4.50428C68.9576 -4.50428 65.7076 -1.00428 46.9576 3.49572C28.2076 7.99572 19.4576 9.24572 19.4576 9.24572C19.4576 9.24572 0.957593 0.245718 -12.0424 -2.25428C-25.0424 -4.75428 -36.0424 -4.25428 -36.7924 -4.00428Z"/>
  </clipPath>
  <linearGradient id="gradient0" gradientTransform="matrix(0.98427 0.98427 -0.98427 0.98427 38.869 -271.026)" gradientUnits="objectBoundingBox" x1="6.03409262332" y1="9.23267326733" x2="6.83863830643" y2="9.23267326733" spreadMethod="pad">
   <stop stop-color="#f9e295" offset="0.00000000000" stop-opacity="1.00000000000"/>
   <stop stop-color="#f7dd84" offset="0.12500000000" stop-opacity="1.00000000000"/>
   <stop stop-color="#ffffff" offset="0.20580999553" stop-opacity="1.00000000000"/>
   <stop stop-color="#f4ce51" offset="0.30112999678" stop-opacity="1.00000000000"/>
   <stop stop-color="#f9e7aa" offset="0.34119999409" stop-opacity="1.00000000000"/>
   <stop stop-color="#efbb0e" offset="1.00000000000" stop-opacity="1.00000000000"/>
  </linearGradient>
  <radialGradient id="gradient1" gradientTransform="matrix(1.0052 1.0052 1.0052 -1.0052 -148.3 24.5957)" gradientUnits="objectBoundingBox" cx="0.95785082222" cy="0.64356685706" fx="0.00000000000" fy="0.00000000000" r="0.24869921988" spreadMethod="pad">
   <stop stop-color="#d0e9f2" offset="0.00000000000" stop-opacity="0.00000000000"/>
   <stop stop-color="#d0e9f2" offset="0.83933001757" stop-opacity="0.00000000000"/>
   <stop stop-color="#d0e9f2" offset="0.94309002161" stop-opacity="0.28184939345"/>
   <stop stop-color="#d0e9f2" offset="1.00000000000" stop-opacity="1.00000000000"/>
  </radialGradient>
  <linearGradient id="gradient2" gradientTransform="matrix(0.98427 0.98427 -0.98427 0.98427 22.64 -240.44)" gradientUnits="objectBoundingBox" x1="3.74597600234" y1="3.93210418496" x2="3.83026046239" y2="4.19549312262" spreadMethod="pad">
   <stop stop-color="#2d3335" offset="0.00000000000" stop-opacity="1.00000000000"/>
   <stop stop-color="#4c464a" offset="0.50000000000" stop-opacity="1.00000000000"/>
   <stop stop-color="#384042" offset="1.00000000000" stop-opacity="1.00000000000"/>
  </linearGradient>
  <linearGradient id="gradient3" gradientTransform="matrix(-0.98427 -0.98427 -0.98427 0.98427 292.019 -4)" gradientUnits="objectBoundingBox" x1="3.41202252490" y1="4.17142857143" x2="3.68942273017" y2="4.17142857143" spreadMethod="pad">
   <stop stop-color="#2d3335" offset="0.00000000000" stop-opacity="1.00000000000"/>
   <stop stop-color="#4c464a" offset="0.50000000000" stop-opacity="1.00000000000"/>
   <stop stop-color="#384042" offset="1.00000000000" stop-opacity="1.00000000000"/>
  </linearGradient>
  <linearGradient id="gradient4" gradientTransform="matrix(0.98427 0.98427 -0.98427 0.98427 98.49 -268.64)" gradientUnits="objectBoundingBox" x1="1.46663407480" y1="2.27939379125" x2="1.66218528477" y2="2.27939379125" spreadMethod="pad">
   <stop stop-color="#f9e295" offset="0.00000000000" stop-opacity="1.00000000000"/>
   <stop stop-color="#f7dd84" offset="0.12500000000" stop-opacity="1.00000000000"/>
   <stop stop-color="#ffffff" offset="0.20580999553" stop-opacity="1.00000000000"/>
   <stop stop-color="#f4ce51" offset="0.30112999678" stop-opacity="1.00000000000"/>
   <stop stop-color="#f9e7aa" offset="0.34119999409" stop-opacity="1.00000000000"/>
   <stop stop-color="#efbb0e" offset="1.00000000000" stop-opacity="1.00000000000"/>
  </linearGradient>
  <linearGradient id="gradient5" gradientTransform="matrix(-1.9685 -1.9685 -1.7421 1.7421 565.677 22.06)" gradientUnits="objectBoundingBox" x1="1.46800816356" y1="1.79472490751" x2="1.58735842076" y2="1.79472490751" spreadMethod="pad">
   <stop stop-color="#2d3335" offset="0.00000000000" stop-opacity="1.00000000000"/>
   <stop stop-color="#4c464a" offset="0.50000000000" stop-opacity="1.00000000000"/>
   <stop stop-color="#384042" offset="1.00000000000" stop-opacity="1.00000000000"/>
  </linearGradient>
  <linearGradient id="gradient6" gradientTransform="matrix(-1.9685 -1.9685 -1.7421 1.7421 565.677 22.06)" gradientUnits="objectBoundingBox" x1="1.28898277776" y1="2.00179018976" x2="1.58735842076" y2="1.79472490751" spreadMethod="pad">
   <stop stop-color="#000000" offset="0.00000000000" stop-opacity="1.00000000000"/>
   <stop stop-color="#000000" offset="1.00000000000" stop-opacity="0.00000000000"/>
  </linearGradient>
  <linearGradient id="gradient7" gradientTransform="translate(-115.329, -29.8151)" gradientUnits="objectBoundingBox" x1="1.35265866162" y1="0.33538320390" x2="1.92217666413" y2="1.54333642713" spreadMethod="pad">
   <stop stop-color="#ffffff" offset="0.00000000000" stop-opacity="1.00000000000"/>
   <stop stop-color="#ffffff" offset="1.00000000000" stop-opacity="0.00000000000"/>
  </linearGradient>
  <radialGradient id="gradient8" gradientTransform="matrix(1.2125 5.55112e-17 0 0.83915 -145.759 -28.6633)" gradientUnits="objectBoundingBox" cx="1.64064083517" cy="1.12574791301" fx="0.00000000000" fy="0.00000000000" r="0.32915637677" spreadMethod="pad">
   <stop stop-color="#ffffff" offset="0.00000000000" stop-opacity="1.00000000000"/>
   <stop stop-color="#ffffff" offset="1.00000000000" stop-opacity="0.00000000000"/>
  </radialGradient>
  <radialGradient id="gradient9" gradientTransform="matrix(1.2125 5.55112e-17 0 0.83915 -145.758 -28.6633)" gradientUnits="objectBoundingBox" cx="1.64064083517" cy="1.12574798285" fx="0.00000000000" fy="0.00000000000" r="0.32915638300" spreadMethod="pad">
   <stop stop-color="#ffffff" offset="0.00000000000" stop-opacity="1.00000000000"/>
   <stop stop-color="#ffffff" offset="0.50000000000" stop-opacity="0.93049515526"/>
   <stop stop-color="#ffffff" offset="1.00000000000" stop-opacity="0.00000000000"/>
  </radialGradient>
  <linearGradient id="gradient10" gradientTransform="matrix(-0.50295 0.1984 0.1972 -0.43254 95.3363 25.0911)" gradientUnits="objectBoundingBox" x1="2.25708188097" y1="0.60836294618" x2="3.20739462492" y2="2.79951018667" spreadMethod="pad">
   <stop stop-color="#ffffff" offset="0.00000000000" stop-opacity="1.00000000000"/>
   <stop stop-color="#ffffff" offset="1.00000000000" stop-opacity="0.00000000000"/>
  </linearGradient>
 </defs>
<g id="layer4">
  <path id="path3834-9" transform="translate(15.25, 12.5)" fill="#ceeeab" d="M0 2.25C0 2.25 7.5 15.25 11.75 30C16 44.75 18 55.5 18 55.5C18 55.5 12.5 68.25 9.75 80.25C7 92.25 4 103.25 4 103.25C4 103.25 9.75 119.25 13.25 133.25C16.75 147.25 17 157.5 17 157.5C17 157.5 13 167.75 9.5 181.75C6 195.75 4.5 212.5 4.5 212.5C4.5 212.5 13.75 210.5 33 213.75C52.25 217 65.25 219.75 65.25 219.75C65.25 219.75 78 217 89.25 213.5C100.5 210 105.5 207 105.5 207C105.5 207 111 207.5 128 213.25C145 219 157.25 221.75 157.25 221.75C157.25 221.75 170.25 219 183.25 216C196.25 213 209.75 208 209.75 208C209.75 208 209 203 214 183.5C219 164 222.75 155.5 222.75 155.5C222.75 155.5 222.25 151 219 135.75C215.75 120.5 209 106 209 106C209 106 210.75 95.5 215.75 82.25C220.75 69 226 55.5 226 55.5C226 55.5 221.25 40.25 218.5 25.75C215.75 11.25 210.25 0 210.25 0C210.25 0 186 9 178.5 10.5C171 12 157.5 15.75 157.5 15.75C157.5 15.75 147.75 11.5 135.5 7.25C123.25 3 105.75 1.75 105.75 1.75C105.75 1.75 102.5 5.25 83.75 9.75C65 14.25 56.25 15.5 56.25 15.5C56.25 15.5 37.75 6.5 24.75 4C11.75 1.5 0.75 2 0 2.25Z"/>
  <g id="g5438" transform="translate(4.42645, 7.39528)" fill="none" clip-path="url(#clippath0)">
   <path id="path5436" transform="translate(0.575547, 0.60472)" fill="#a6dd8b" d="M111.998 0L107.748 7C106.998 16 105.498 20.75 99.248 23.5C92.998 26.25 86.998 27 88.248 31C89.498 35 101.248 40.25 102.498 44C103.748 47.75 110.748 45.75 113.498 51C116.248 56.25 115.498 66.25 109.748 68.25C103.998 70.25 92.248 68.75 89.498 77.75C86.748 86.75 84.748 88.25 80.498 90.5C76.248 92.75 73.248 101 76.998 107C80.748 113 89.248 105.75 91.998 100.5C94.748 95.25 99.248 91.75 99.248 91.75L122.998 91.75L181.998 90L185.248 86.25C185.248 86.25 188.498 90.25 187.998 95C187.498 99.75 184.248 109.75 188.248 112.25C192.248 114.75 207.748 110.25 212.248 105.25C216.748 100.25 207.498 77 201.748 75.75C195.998 74.5 183.248 74 184.748 68.75C186.248 63.5 196.498 73.25 201.998 72C207.498 70.75 218.748 51 213.998 46.75C209.248 42.5 189.748 41.5 188.248 38.75C186.748 36 209.248 30.75 210.498 27.75C211.748 24.75 207.998 20.5 204.248 19.25C200.498 18 190.248 35.5 183.248 35C176.248 34.5 163.248 40.75 165.998 46.5C168.748 52.25 159.998 57.5 151.498 53C142.998 48.5 126.748 40 129.748 29C132.748 18 151.248 10.25 151.248 10.25ZM98.436 107.22C96.841 107.37 93.967 111.91 93.498 114.25C92.998 116.75 90.248 121 89.998 126.5C89.748 132 94.748 133.25 98.748 133C102.748 132.75 101.498 126.25 100.748 118C100.498 118 100.248 107.75 98.748 107.25C98.654 107.22 98.542 107.21 98.436 107.22ZM191.158 158.88C184.818 159.17 184.528 166.34 183.748 167.75C182.498 170 185.998 181.5 185.748 185.75C185.498 190 180.998 191 176.248 195.5C171.498 200 176.748 211.5 187.498 226.5L232.248 227.75L231.248 192.75C231.248 192.75 235.998 188.5 210.498 168.5C200.938 161 194.958 158.7 191.158 158.88ZM41.188 175.41C37.158 175.3 32.906 181.12 31.5 183C30 185 25.25 188 14.5 192.5L0 226.75L53 231C53 231 54.75 220 48.75 215.25C42.75 210.5 31.5 209.5 30.5 202C29.5 194.5 39.75 192 44.25 187.75C48.75 183.5 46.25 176.5 42 175.5C41.734 175.44 41.456 175.41 41.188 175.41Z"/>
  </g>
  <path id="path5280" transform="translate(24.375, 87.8438)" fill="#aac3e7" d="M140.405 0.000169C135.645 -0.014831 131.375 0.968169 128.875 3.15617C120.875 10.1562 93.875 3.90617 80.375 10.1562C66.875 16.4062 67.125 48.1562 65.625 54.6562C64.125 61.1562 48.125 75.4062 45.625 78.1562C43.125 80.9062 32.375 85.4062 26.125 86.6562C19.875 87.9062 13.375 93.9062 10.625 97.6562C8.604 100.416 3.219 104.106 0.5 105.876C0.454 106.056 0.421 106.226 0.375 106.406C0.241 106.936 0.128 107.486 0 108.036C4.98 106.426 11.18 99.8562 16.625 94.4062C22.875 88.1562 36.625 86.6562 44.375 82.9062C52.125 79.1562 58.625 63.1562 70.875 59.1562C83.125 55.1562 92.125 70.9062 95.125 77.6562C98.125 84.4062 96.875 90.4062 98.875 94.6562C100.875 98.9062 109.875 106.406 110.375 108.156C110.875 109.906 105.375 114.656 104.125 116.656C102.875 118.656 93.625 123.656 92.375 125.406C91.405 126.756 90.455 132.176 90.065 134.626C90.475 134.456 90.815 134.316 91.185 134.156C91.675 131.626 92.705 127.076 94.125 125.656C96.125 123.656 105.375 121.156 106.625 117.156C107.875 113.156 113.625 110.656 113.625 110.656C113.625 110.656 116.375 114.656 129.625 124.656C138.455 131.326 142.385 140.186 144.035 145.376C144.705 145.546 145.565 145.786 146.065 145.906C144.845 141.586 141.225 129.666 137.125 125.156C132.125 119.656 118.625 114.406 114.375 103.156C110.125 91.9062 89.875 68.9062 96.875 62.9062C103.875 56.9062 113.375 58.9062 125.375 70.4062C137.375 81.9062 171.625 76.1562 183.125 74.1562C193.075 72.4262 203.955 89.0362 207.035 100.186C207.625 98.0962 208.155 96.1862 208.685 94.4362C206.945 92.5162 204.995 89.8162 203.375 86.1562C199.625 77.6562 191.375 72.9062 191.375 72.9062C191.375 72.9062 200.125 67.9062 206.125 65.1562C207.745 64.4162 209.135 63.4762 210.315 62.4962C210.155 61.7262 210.055 61.2462 209.875 60.4062C209.845 60.2562 209.815 60.1162 209.785 59.9662C205.015 65.5262 190.545 69.5862 188.125 70.9062C185.375 72.4062 169.875 73.9062 152.375 75.4062C134.875 76.9062 125.625 67.9062 118.125 60.6562C110.625 53.4062 105.125 24.6562 115.125 22.6562C125.125 20.6562 135.125 36.4062 145.125 39.6562C155.125 42.9062 166.625 23.9062 164.875 12.6562C163.675 4.92217 150.875 0.031169 140.405 0.000169ZM87.065 13.2812C88.335 13.2822 92.925 14.8752 93.625 15.6562C95.875 18.1562 95.625 22.9062 93.625 23.6562C91.625 24.4062 80.875 31.6562 83.125 37.9062C85.375 44.1562 84.875 55.9062 79.625 55.9062C74.375 55.9062 71.625 55.9062 69.625 53.4062C67.625 50.9062 67.625 41.4062 69.625 33.6562C71.625 25.9062 73.125 18.6562 77.625 15.4062C80.719 13.1722 84.255 13.2782 87.065 13.2812ZM100.655 86.3762C100.855 86.3862 102.565 89.8862 105.375 93.4062C108.375 97.1562 108.625 101.656 108.625 101.656C108.625 101.656 104.375 96.9062 102.625 93.6562C100.875 90.4062 100.625 86.4062 100.625 86.4062C100.625 86.3762 100.645 86.3762 100.655 86.3762Z"/>
  <path id="path5319" transform="translate(126.371, 63.1934)" fill="none" stroke="#6d7f42" stroke-width="1.25000000000" stroke-linecap="round" stroke-linejoin="round" opacity="0.38696000000" d="M2.62875 11.5566C8.87875 12.0566 14.8787 9.30655 13.3787 5.05655C11.8787 0.806551 0.87875 -2.19345 0.12875 2.05655C-0.62125 6.30655 2.12875 12.5566 2.62875 11.5566Z"/>
  <path id="path5321" transform="translate(107.244, 51.1832)" fill="none" stroke="#6d7f42" stroke-width="1.25000000000" stroke-linecap="round" stroke-linejoin="round" opacity="0.38696000000" d="M7.75619 8.0668C-0.743812 2.5668 -0.743812 0.816799 0.756188 0.0667994C2.25619 -0.683201 11.0062 5.0668 13.5062 8.0668C16.0062 11.0668 11.2562 10.0668 7.75619 8.0668Z"/>
  <g id="g5373" transform="translate(10.9921, 11.1241)" fill="none" clip-path="url(#clippath1)">
   <path id="path5323" transform="translate(1.50794, 103.126)" fill="none" stroke="#6d7f42" stroke-width="1.25000000000" stroke-linecap="round" stroke-linejoin="round" opacity="0.38696000000" d="M9.5 39.5C42.5 37 47.75 36 45.75 29.25C43.75 22.5 37 5.75 22.75 6.75C8.5 7.75 0 0 0 0"/>
   <path id="path5311" transform="translate(12.7579, 8.62586)" fill="none" stroke="#6d7f42" stroke-width="1.25000000000" stroke-linecap="butt" stroke-linejoin="miter" stroke-miterlimit="2.00000000000" opacity="0.38696000000" d="M0 160C18.25 150 28.75 151.5 35 148.5C41.25 145.5 48.25 142.75 50.75 139C53.25 135.25 56.5 127.5 56.5 121C56.5 114.5 53 85 59.75 77.5C66.5 70 77 51.5 85.75 54.25C94.5 57 98 64 107.75 63.75C117.5 63.5 129.5 59.75 132 51.5C134.5 43.25 116.25 35.5 116 28.5C115.75 21.5 121.5 14.25 136.25 11.5C151 8.75 159.75 0 159.75 0"/>
   <path id="path5313" transform="translate(9.75794, 7.04282)" fill="none" stroke="#6d7f42" stroke-width="1.25000000000" stroke-linecap="round" stroke-linejoin="round" opacity="0.38696000000" d="M0 145.333C15.25 143.833 22.25 148.833 31.5 147.083C40.75 145.333 44.75 144.083 49.25 141.333C53.75 138.583 55.25 137.583 55.5 134.833C55.75 132.083 56.5 122.333 52.5 112.833C48.5 103.333 40 81.333 44.25 74.083C48.5 66.833 49.5 52.583 60 49.583C70.5 46.583 81 43.333 87.75 48.333C94.5 53.333 100.5 62.583 107.75 62.833C115 63.083 119.5 61.333 122.25 58.333C125 55.333 126.75 48.083 124 44.583C121.25 41.083 108.5 39.083 106.75 35.083C105 31.083 96 18.083 106.5 8.33304C117 -1.41696 142.75 0.083045 142.75 0.083045"/>
   <path id="path5315" transform="translate(16.5079, 1.37586)" fill="none" stroke="#6d7f42" stroke-width="1.25000000000" stroke-linecap="round" stroke-linejoin="round" opacity="0.38696000000" d="M0 149C13.75 150 21.5 153.25 33.5 148.5C45.5 143.75 47 143.25 47.25 139.75C47.5 136.25 47 124 44.25 119.75C41.5 115.5 31.25 106 28.5 95.5C25.75 85 28.75 54.5 37 47.25C45.25 40 69 40 74.5 36.75C80 33.5 79.75 20 87.5 12.25C95.25 4.5 114.5 0 114.5 0"/>
   <path id="path5317" transform="translate(185.258, 9.87586)" fill="none" stroke="#6d7f42" stroke-width="1.25000000000" stroke-linecap="round" stroke-linejoin="round" opacity="0.38696000000" d="M0 0C11.75 5 39 9.75 47.25 40.25"/>
   <path id="path5325" transform="translate(5.00794, 121.376)" fill="none" stroke="#6d7f42" stroke-width="1.25000000000" stroke-linecap="round" stroke-linejoin="round" opacity="0.38696000000" d="M0 84C19 71.5 36 82.75 49 80C62 77.25 87.25 42.75 95 43C102.75 43.25 100.5 31.25 103.5 29.75C106.5 28.25 109 35.75 115.25 37.75C121.5 39.75 139.75 35 138.75 32C137.75 29 131.75 24.25 133.25 23.5C134.75 22.75 141.75 28.5 146 27C150.25 25.5 189.75 26 194.5 13.5C199.25 1 216 0 216 0"/>
   <path id="path5327" transform="translate(72.7579, 146.126)" fill="none" stroke="#6d7f42" stroke-width="1.25000000000" stroke-linecap="round" stroke-linejoin="round" opacity="0.38696000000" d="M0 78.75C13.5 67.25 23.25 53.75 28.5 51.75C33.75 49.75 41.25 48 44.25 43.75C47.25 39.5 46.75 33 49.5 31.75C52.25 30.5 53.25 37.5 58.25 37.75C63.25 38 95 32.75 101 26C107 19.25 133.25 13.5 133.5 11.5C133.75 9.5 132.5 6.75 133.75 6C135 5.25 158.5 0 158.5 0"/>
   <path id="path5329" transform="translate(164.008, 180.683)" fill="none" stroke="#6d7f42" stroke-width="1.25000000000" stroke-linecap="round" stroke-linejoin="round" opacity="0.38696000000" d="M0 46.693C9 32.943 20.5 5.69297 29.5 4.69297C38.5 3.69297 39.75 2.19297 42 0.442965C44.25 -1.30703 59 2.69297 59 2.69297"/>
  </g>
  <g id="g5400" transform="translate(52.0424, 18.7543)" fill="none" clip-path="url(#clippath2)">
   <path id="path5387" transform="translate(3.45759, 3.74572)" fill="none" stroke="#d38484" stroke-width="2.00000000000" stroke-linecap="round" stroke-linejoin="miter" stroke-miterlimit="2.00000000000" d="M8.5 0L0 28.25L18 34.5L25.75 70.75L4.75 93L13.75 103.5L1.75 115L2.25 119.5L22.5 144L36.5 137.25L57 155.75L46.5 184L56.75 192.5L54 205.5"/>
   <path id="path5389" transform="translate(59.9576, 111.496)" fill="none" stroke="#d38484" stroke-width="2.00000000000" stroke-linecap="round" stroke-linejoin="miter" stroke-miterlimit="2.00000000000" d="M0 84.5L12.5 56.75L23.5 49.75L51 65.5L71.5 61.75L71.25 46L61 40L73.75 13.75L79.5 10L118.25 0"/>
  </g>
 </g><g id="layer5">
  <path id="rect5757-8-7-7-9" transform="translate(34.373, 224.31)" fill="url(#gradient0)" d="M19.887 15.65L15.08 20.2C10.073 14.89 4.84 9.5 0 4.07L4.491 0C11.32 6.53 13.363 8.53 19.887 15.65Z"/>
  <path id="path5604-26" transform="translate(110.928, 28.374)" fill="#2d3335" d="M20.382 118.816C-6.794 91.636 -6.794 47.565 20.382 20.385C47.562 -6.795 91.632 -6.795 118.812 20.385C145.992 47.565 145.992 91.636 118.812 118.816C91.632 145.996 47.562 145.996 20.382 118.816ZM23.342 115.856C49.432 141.956 90.752 142.936 116.842 116.846C142.942 90.746 141.952 49.43 115.862 23.337C89.772 -2.755 48.452 -3.74 22.352 22.353C-3.738 48.446 -2.758 89.766 23.342 115.856Z"/>
  <path id="path5604-2-9" transform="translate(110.928, 30.6583)" fill="#9eaaac" d="M20.382 116.532C-6.794 89.3517 -6.794 45.2807 20.382 18.1007C20.552 17.9347 20.712 17.7717 20.882 17.6077C-5.807 44.8257 -5.644 88.5317 21.372 115.542C48.382 142.562 92.092 142.722 119.302 116.032C119.142 116.202 118.982 116.362 118.812 116.532C91.632 143.712 47.562 143.712 20.382 116.532ZM22.842 19.5767C23.012 19.4097 23.172 19.2497 23.342 19.0847C49.432 -7.00829 90.752 -6.02429 116.842 20.0687C142.942 46.1617 143.922 87.4817 117.832 113.572L117.332 114.072C142.922 87.9517 141.792 46.9807 115.862 21.0527C89.932 -4.87429 48.962 -6.01029 22.842 19.5767Z"/>
  <path id="path5604-9-13" transform="translate(113.713, 31.1573)" fill="#d0e9f2" fill-opacity="0.47594415198" d="M19.5675 114.063C45.6675 140.153 87.9675 140.153 114.057 114.063C140.157 87.9627 140.157 45.6627 114.057 19.5697C87.9675 -6.52325 45.6675 -6.52325 19.5675 19.5697C-6.5225 45.6628 -6.5225 87.9627 19.5675 114.063Z"/>
  <path id="path5604-9-1-3" transform="translate(113.713, 31.1573)" fill="url(#gradient1)" d="M19.5675 114.063C45.6675 140.153 87.9675 140.153 114.057 114.063C140.157 87.9627 140.157 45.6627 114.057 19.5697C87.9675 -6.52325 45.6675 -6.52325 19.5675 19.5697C-6.5225 45.6628 -6.5225 87.9627 19.5675 114.063Z"/>
  <path id="path5604-9-1-8-8-1" transform="translate(116.55, 127.78)" fill="url(#gradient2)" d="M5.75 0L0 4.09C3.3 10.3 7.56 16.14 12.8 21.37C18.03 26.61 23.87 30.87 30.08 34.17L34.17 28.42C28.25 25.38 22.68 21.41 17.72 16.45C12.76 11.49 8.79 5.92 5.75 0Z"/>
  <path id="rect5757-5" transform="translate(99.141, 143.31)" fill="url(#gradient3)" d="M31.929 4.12C33.659 5.85 35.009 7.79 36.049 9.84L9.839 36.05C7.789 35.01 5.851 33.66 4.121 31.93C2.392 30.2 1.037 28.26 0 26.21L26.209 0C28.259 1.04 30.199 2.39 31.929 4.12Z"/>
  <path id="rect5757-8-7-2" transform="translate(40.7, 155.98)" fill="url(#gradient4)" d="M81.82 15.75L15.749 81.82C11.765 79.63 9.917 78.82 6.459 75.36C3.001 71.9 2.192 70.06 0 66.07L66.07 0C71.13 3.75 78.19 10.4 81.82 15.75Z"/>
  <path id="rect5757-8-6" transform="translate(36.763, 157.95)" fill="url(#gradient5)" d="M75.267 8.67C78.727 12.13 82.697 15.33 83.787 19.69L19.686 83.79C13.169 78.63 5.131 71 0 64.1L64.1 0C67.591 0.23 71.757 5.16 75.217 8.62Z"/>
  <path id="rect5757-8-6-3" transform="translate(36.763, 157.95)" fill="url(#gradient6)" opacity="0.59565000000" d="M75.017 8.91C78.477 12.37 82.697 15.33 83.787 19.69L19.686 83.79C11.809 76.88 7.888 73.16 0 64.1L64.1 0C67.591 0.23 71.517 5.45 74.977 8.91Z"/>
  <path id="path6587" transform="translate(121.579, 32.3151)" fill="url(#gradient7)" opacity="0.60435000000" d="M15.8406 17.2349C56.5006 -14.9381 93.9706 4.50693 93.6206 22.5379C93.2706 40.5689 37.0506 92.8949 17.2506 88.6549C-2.5494 84.4149 -8.1994 35.2659 15.8406 17.2349Z"/>
  <text id="text6302-7" fill="url(#gradient8)" opacity="0.46087000000" x="0.00000000000pt" y="11.76562500000pt" transform="matrix(0.98796 -0.1547 0.1547 0.98796 113.314 50.8763)"><tspan x="0"  y="14.707" font-family="Monospace" font-size="15.84000015259pt" font-weight="bold">01011001</tspan><tspan x="0"  y="39.4567" font-family="Monospace" font-size="15.84000015259pt" font-weight="bold">00110101</tspan><tspan x="0"  y="64.2064" font-family="Monospace" font-size="15.84000015259pt" font-weight="bold">10010011</tspan></text>
  <text id="text6302" fill="url(#gradient9)" x="0.00000000000pt" y="11.76562500000pt" transform="matrix(0.98796 -0.1547 0.1547 0.98796 112.692 49.6721)"><tspan x="0"  y="14.707" font-family="Monospace" font-size="15.84000015259pt" font-weight="bold">01011001</tspan><tspan x="0"  y="39.4567" font-family="Monospace" font-size="15.84000015259pt" font-weight="bold">00110101</tspan><tspan x="0"  y="64.2064" font-family="Monospace" font-size="15.84000015259pt" font-weight="bold">10010011</tspan></text>
  <path id="path6587-7" transform="translate(187.074, 110.829)" fill="url(#gradient10)" opacity="0.76522000000" d="M38.6363 30.7611C11.8463 52.7411 -3.17367 51.7711 0.566329 43.9011C4.29633 36.0311 42.8863 2.24109 52.0163 0.151088C61.1363 -1.94191 54.2863 18.1911 38.6363 30.7611Z"/>
 </g>
</svg>
