<?xml version="1.0" standalone="no"?>
<!DOCTYPE svg PUBLIC "-//W3C//DTD SVG 20010904//EN" "http://www.w3.org/TR/2001/REC-SVG-20010904/DTD/svg10.dtd">
<!-- Created using Karbon, part of Calligra: http://www.calligra.org/karbon -->
<svg xmlns="http://www.w3.org/2000/svg" xmlns:xlink="http://www.w3.org/1999/xlink" width="48pt" height="48pt">
<defs/>
<g id="g1713">
  <path id="path701" transform="translate(4.42481, 4.42476)" fill="#2980b9" fill-rule="evenodd" d="M25.5752 0C11.4517 0 0 11.4448 0 25.5596C0 39.6743 11.4517 51.1505 25.5752 51.1505C39.6986 51.1505 51.1504 39.6743 51.1504 25.5596C51.1504 11.4448 39.6986 0 25.5752 0Z"/>
 </g><g id="g1540">
  <g id="group0" transform="translate(13.4881, 8.54252)" fill="none">
   <path id="path599" transform="matrix(-1.50984 -1.36116 1.36622 -1.5059 4.68688 40.8206)" fill="#f6f7fc" fill-rule="evenodd" stroke="#f6f7fc" stroke-width="0.78750000000" stroke-linecap="round" stroke-linejoin="round" d="M0 5.03619C2.01951 0 2.01951 0 2.01951 0L4.10264 5.02598Z"/>
   <rect id="rect598" transform="matrix(-1.50984 -1.36116 1.36622 -1.5059 11.6067 33.258)" fill="#f6f7fc" stroke="#f6f7fc" stroke-width="0.78750000000" stroke-linecap="round" stroke-linejoin="round" width="3.28512616768pt" height="11.69943894719pt"/>
   <path id="rect601" transform="matrix(-1.50984 -1.36116 1.36622 -1.5059 31.75 11.3052)" fill="#f6f7fc" stroke="#f6f7fc" stroke-width="0.78750000000" stroke-linecap="round" stroke-linejoin="round" d="M1.20176 0C0.535988 0 0 0.404927 0 0.907907C0 1.41088 0.535988 1.81581 1.20176 1.81581L3.15627 1.81581C3.82205 1.81581 4.35805 1.41088 4.35805 0.907907C4.35805 0.404927 3.82205 0 3.15627 0Z"/>
  </g>
 </g>
</svg>
